<?xml version="1.0" encoding="utf-8"?>
<!-- Generator: Adobe Illustrator 28.1.0, SVG Export Plug-In . SVG Version: 6.00 Build 0)  -->
<svg version="1.1" id="Calque_1" xmlns="http://www.w3.org/2000/svg" xmlns:xlink="http://www.w3.org/1999/xlink" x="0px" y="0px"
	 viewBox="0 0 1200 1200" style="enable-background:new 0 0 1200 1200;" xml:space="preserve">
<style type="text/css">
	.st0{fill:#243752;}
</style>
<g>
	<g>
		<g>
			<polygon class="st0" points="543.99,559.59 452.2,607.66 452.2,299.97 543.99,251.91 			"/>
			<circle class="st0" cx="510.48" cy="75.82" r="61.88"/>
		</g>
		<path class="st0" d="M618.98,11.4l-3.36-1.07v0.79v99.45v719.96c-5.22,0.22-10.35,0.79-15.62,0.79
			c-199.25,0-360.77-161.52-360.77-360.77c0-97.19,35.36-188.48,101.12-250.02C412.52,153,378.46,67.2,378.46,67.2
			c-142.24,78.29-238.68,229.52-238.68,403.36c0,254.18,206.05,460.23,460.22,460.23c5.27,0,10.39-0.61,15.62-0.79v260.34
			l105.74-55.28V914.07c195.19-53.32,338.86-231.42,338.86-443.52C1060.22,222.8,864.27,21.44,618.98,11.4z M1021.67,576.74v0.1
			l-0.9-1.45l-1.45-1.43l-0.2,0.21c-0.03,0.03-0.64,0.68-0.21,1.55c0.22,0.44,0.1,1.73-0.03,2.48v3.36l-2.83,2.66l1.42,4.43
			l-7.11,17l-3.85,9.98l-2.26,10.07l-3.6,6.53l-1.54,0.97l-4.39,0.69l-2.82,1.57h-2.09c-0.64-0.49-1.2-1.09-1.2-1.28
			c0-0.14-0.06-0.26-0.17-0.35c-0.4-0.32-1.73-0.12-2.44,0.03l-1.08-1.38c-0.03-0.06-0.71-1.41-2.08-2.96l-0.34-2.37
			c-0.08-0.39-0.18-1.55,0.35-1.76c0.89-0.36,0.84-1.31,0.67-1.81l-0.87-1.56l-1.71-3.42v-3.07c0-0.56,0.82-1.79,1.33-2.43
			l0.07-0.08v-2.25h1.99l3.92-8.54l0.03-0.06l0-1.57l0.72-3.42l-1.76-3.52v-5.63l2.08-5.71l0.02-2.69c0.68-0.27,3.03-1.17,3.46-1.32
			c0.34-0.11,1.5-0.05,2.18,0.01h3.41l0.08-0.06c0.08-0.07,2.12-1.59,3.17-2.64c0.86-0.86,2.19,0,2.25,0.04l0.14,0.09l2.88-1.34
			l1.61-4.64l1.39-3.66l0.02-1.26l0.47-0.94l1.09,1.25l0.21-0.12c0.02-0.01,2.43-1.38,3.43-1.72c0.79-0.26,1.01-0.86,1.18-1.35
			c0.09-0.25,0.18-0.49,0.33-0.64c0.12-0.12,0.18-0.28,0.18-0.46c-0.02-0.7-1.09-1.77-1.48-2.14v-2.15l1.6-0.96l1.04-1.35h0.53
			l1.67,4.34c0.01,0.04,1.39,4.01,1.56,4.69c0.12,0.49,0.48,5.66,0.69,9.01l0.83,1.88L1021.67,576.74z M1028.25,420.24l-1.46,2.24
			v3.13l-0.04,0.07l-7.32,12.79c-0.03,0.1-0.47,1.4-0.83,1.89c-0.24,0.31-1.24,2.9-1.82,4.46l-0.74,2.74l-9.18,13.02
			c-0.28,0.31-6.35,6.82-8.57,8.22c-1.2,0.76-2.1,1.05-2.69,1.24c-0.41,0.13-0.64,0.21-0.67,0.32c-0.06,0.3-0.57,0.73-2.73,2.4
			c-2.32,1.8-5.49,4.26-7.09,6.21c-1.97,2.4-5.94,7.45-7.86,9.89v0.02l-0.07,0.07c-0.61,0.78-1,1.28-1.02,1.3l-0.74,0.95h0
			l-0.53,0.68c-0.08,0.17-0.67,1.27-1.39,1.27c-0.36,0-1.86,0.56-2.85,0.95v2.2l-3.06,1.41l-0.81,3.56l-0.08,0.06
			c-0.35,0.27-0.76,0.63-1.11,0.99l-0.12,0.12l0,0c-0.01,0.02-0.03,0.03-0.04,0.04l-0.07,0.08c-0.03,0.03-0.06,0.07-0.09,0.1
			l-0.08,0.09c-0.02,0.03-0.04,0.05-0.06,0.08l-0.06,0.08h0c-0.02,0.03-0.04,0.06-0.06,0.08l0,0l-0.05,0.08
			c-0.01,0.03-0.03,0.05-0.04,0.08c-0.05,0.1-0.08,0.19-0.08,0.26c0,0.86-0.86,2.61-0.96,2.8l-0.01,0.01h0l0,0.01l-2.21,4.06
			c0,0.01-1.61,3.69-1.94,5.61c-0.07,0.42-0.18,0.82-0.27,1.2c-0.35,1.38-0.6,2.37,0.65,3.53c1.76,1.64,2.69,3.38,2.73,3.45
			l0.07,0.13l-1.39,2.89c0.33,0.54,1.31,2.27,0.58,3.12c-0.48,0.56-0.8,1.02-0.93,1.23c0.67,1.45,2.05,4.51,2.05,4.97
			c0,0.32,0.28,2.31,0.46,3.56l0.01,0.04l0,0.04c-0.08,0.6-0.12,1.2-0.12,1.66c0,0.15,0,0.29,0.01,0.42c0,0.02,0,0.05,0.01,0.07
			l0.01,0.08h0c0,0.03,0.01,0.06,0.01,0.08h0l0.01,0.06h0c0,0.02,0.01,0.03,0.02,0.05h0l0.01,0.02c0.01,0.02,0.02,0.04,0.02,0.06
			c0,0,0,0,0,0c0.39,0.19,3.24,1.96,4,2.44l0.34-0.3l-0.02,0.5l0.19,0.12l-0.2,0.18l-0.11,3.48l-0.23,3.73
			c0.01,0.46,0.35,11.96,0.35,12.65c0,0.14,0,0.36-0.01,0.62c-0.01,0.7-0.06,2.54,0.08,2.83c0.06,0.09,0.13,0.15,0.19,0.22
			c0.19,0.2,0.43,0.46,0.43,0.98c0,0.61-0.99,2.82-1.19,3.26l-1.64,4.93l-0.06,0.05l-4.84,4.12l-6.51,2.7
			c-1.43,0-3.9,0.23-4.43,0.83c-0.81,0.92-3.01,3.24-3.03,3.26l-1.71,1.94l-0.73,1.55c0,0-1.98,2.1-2.33,2.45
			c-0.36,0.36-3.86,2.08-4.68,2.47l-3.6,3.71v1.16l-0.68,2.89l0.9,2.36c0.1,0.18,1.16,2.09,1.28,2.45c0.13,0.4,0.6,4.26,0.6,4.97
			c0,0.41,0.04,1.53,0.07,2.46c0.03,0.66,0.04,1.23,0.04,1.38c0.03,0.18,0.53,0.96,0.99,1.57l0.08,0.11l-1.43,5.95l0.01,1.29
			l-1.37,2.36l-0.09,0.04l-8.84,3.84l-3.29,1.36l-1.29,2.15l0.8,4.59l-0.51,2.63l0,0.02l-0.11,0.55l-0.01,0l-0.23,1.13
			c-0.92,1.52-1.9,3.28-1.93,3.57v3.22l-1.31,1.91l-3.32,1.94c-2.68,3.51-6.7,8.85-6.9,9.3c-0.2,0.51-1.28,2.82-1.81,3.35
			c-0.23,0.23-0.92,0.67-2.01,1.36c-0.75,0.47-1.77,1.12-1.91,1.28c-0.23,0.35-4.23,4.45-5.03,5.27c-0.39,0.28-8.6,6-11.74,7.05
			c-3.18,1.06-3.89,1.06-4.51,1.06c-0.58,0-1.68,0.19-1.92,0.36c-0.06,0.42-0.53,1.09-0.75,1.38l-0.09,0.12h-3.63l-6.01-0.57
			l-0.93,1.4l-5.79-0.59l-2.96,1.39h-4.8c-1.38,0.81-3.95,2.33-4.22,2.51c-0.37,0.25-1.55,0.68-1.69,0.73l-0.09,0.03l-0.09-0.03
			l-4.89-1.43l-5.61-11.21l1.38-1.62c0.01,0,0.9-0.45,1.26-1.53c0.32-0.98,0.13-2.17-0.57-3.54c-0.79-1.54-1.49-2.46-2.1-3.28
			c-0.49-0.64-0.92-1.23-1.33-1.99c-0.04-0.07-0.07-0.14-0.11-0.21l-0.03-0.06h0c-0.03-0.05-0.05-0.11-0.07-0.16h0l-0.05-0.1l0,0
			c-0.02-0.05-0.05-0.1-0.07-0.15l0,0l-0.03-0.06c-0.03-0.07-0.05-0.14-0.08-0.21h0l-0.05-0.13l0,0c-0.03-0.07-0.06-0.15-0.09-0.22
			l0,0l-0.08-0.22c-0.01-0.04-0.03-0.09-0.04-0.13l-0.07-0.2l0,0c-0.02-0.05-0.03-0.1-0.04-0.14l-0.01,0l-0.06-0.2l0,0
			c-0.02-0.05-0.03-0.1-0.05-0.15h0l-0.03-0.09c-0.01-0.02-0.01-0.04-0.02-0.06l-0.02-0.07h0c-0.01-0.05-0.03-0.1-0.04-0.15h0
			l-0.07-0.26l0,0c-0.01-0.04-0.02-0.09-0.03-0.13h-0.01c-0.03-0.13-0.07-0.26-0.1-0.4c0,0,0-0.01,0-0.02
			c-0.51-2.14-0.64-3.41-0.74-4.34c-0.12-1.17-0.16-1.61-0.83-2.39l-0.28-0.33h0c-0.03-0.04-0.06-0.07-0.09-0.11v0l-0.21-0.26
			c-0.04-0.04-0.07-0.09-0.11-0.13l-0.22-0.27h0c-0.04-0.05-0.08-0.09-0.12-0.14l-0.23-0.28h0c-0.04-0.05-0.07-0.09-0.11-0.14v0
			l-0.25-0.31c-0.03-0.04-0.06-0.08-0.1-0.12l-0.27-0.32l0,0c-0.03-0.03-0.05-0.06-0.07-0.09l-0.43-0.53l-0.15-0.18
			c-0.02-0.03-0.05-0.07-0.08-0.1l-0.15-0.18l-0.97-1.19l-4.35-5.89c-0.6-1.62-1.99-5.43-1.99-5.8c-0.02-0.3-0.86-3.97-1.39-6.21
			l-1.05-4.42l-1.41-4.58l1.04-8.22l-6.69-11.54l-3.41-6v-3.2l-3.69-3.34l-0.72-2.76l-0.9-5.52l-0.04-0.01v-0.22l-0.06-0.38
			l0.06,0.01v-8.29l0.12-0.09c0.57-0.41,1.11-0.92,1.16-1.07c0-0.33,1.34-5.72,1.75-7.37l0.36-2.75l1.39-1.27l0.23-2.29l3.02-3.96
			l2.33-1.67l0.7-7.09l1.2-0.87l-4.35-10.25v-2.41l1.24-1.93c-0.85-2.29-3.34-9.03-3.34-9.49c0-0.27-0.37-1.2-0.65-1.81l-2.14-2.14
			v-0.46v-0.69v-0.6l-0.25-1.43l-0.06-0.32l-0.05-0.27c-0.08-0.44-0.15-0.84-0.21-1.2c0,0,0,0,0,0c-0.05-0.26-0.09-0.5-0.13-0.73
			l0-0.03c-0.02-0.11-0.04-0.22-0.06-0.33v0c-0.02-0.1-0.04-0.2-0.05-0.29l-0.01-0.07c-0.02-0.11-0.04-0.21-0.06-0.3
			c-0.02-0.1-0.04-0.19-0.05-0.27v0c-0.02-0.09-0.03-0.18-0.05-0.26h0l0-0.01c-0.02-0.09-0.03-0.17-0.04-0.24l-0.01-0.04
			c-0.02-0.08-0.03-0.15-0.04-0.21c-0.01-0.04-0.02-0.08-0.02-0.11l-0.01-0.04c-0.01-0.04-0.01-0.07-0.02-0.09h0l-0.01-0.03
			c0-0.01,0-0.02-0.01-0.03c0,0,0-0.01,0-0.01c-0.01-0.04-0.05-0.1-0.09-0.16c-0.02-0.03-0.03-0.05-0.05-0.08
			c-0.04-0.07-0.1-0.14-0.15-0.21c-0.02-0.03-0.04-0.05-0.06-0.08c-0.15-0.2-0.33-0.42-0.48-0.59l-2.2-1.1v-1.81l-2.72-3.03
			l-0.03,0.04l-0.21-0.31l-0.15-0.17l0.02-0.02l-2.2-3.19l-6.07-5.64l-2.54-6.35l-2.5-2.87l1.29-0.93c0.85-0.21,1.67-0.55,1.77-0.73
			c0.01-0.1-0.04-0.73-0.09-1.33c-0.31-3.66-0.32-5.56,0.51-5.84c0.74-0.25,1.37-0.38,1.69-0.44l0.18-1.46l-1.58-0.98l2.97-5.71
			l-0.14-0.37l-0.67-1.82l1.61-4.26l-3.1-4.25v-0.97h-1.7l-0.83-0.98l-0.87-1.86l-1.72-0.48l-0.17-0.05
			c-0.47,0.14-1.98,0.57-2.33,0.57c-0.34,0-5.36-0.31-5.91-0.35l-1.52,0.33l-1.89,1.41h-2.29l-3.42-2.69l-0.71-3.77l-3.96-5.55
			l-5.58-1.02l-4.83,0.29l-1.03,0.06l-3.4-0.11l-0.58,0.1l0,0l-0.59,0.1l0,0l-2.15,0.36l-0.8,0.95l-1.1,1.3l-0.93,0.93l-2.5-0.24
			c-0.04,0.02-0.11,0.05-0.18,0.08v0l-0.25,0.11v0c-1.58,0.7-6.49,2.86-7.18,3.16l-7.48,3.21l-0.14-0.11
			c-0.78-0.61-2.22-1.6-2.76-1.68l-0.15-0.03c0,0,0,0,0,0c-1.07-0.18-4.93-0.99-5.11-1.03h0l-1.02,0.05l0-0.01l-10.94,0.43
			l-11.44,5.02l-1.16-0.35l0,0l-1.37-0.42l-5.58-4.3c0-0.01-0.01-0.01-0.02-0.02c-0.01-0.01-0.02-0.01-0.02-0.02l-0.79-0.75h0
			c0,0,0,0-0.01-0.01l0,0l-1.04-0.99v0c-1.89-1.78-3.89-3.61-4.21-3.76c-0.59-0.24-6.57-4.36-7.36-4.9l-2.46-1.64l-2.12-0.94
			l-3.04-4.22c-1.1-0.88-2.4-2.03-2.4-2.53c0-0.11,0.03-0.37,0.06-0.71c0.07-0.73,0.29-2.94,0.01-3.3
			c-0.06-0.07-0.12-0.16-0.19-0.28l-0.01,0.01l-0.23-0.42l-0.03-0.06l-0.05-0.1l0,0c-0.01-0.01-0.01-0.02-0.02-0.03v0c0,0,0,0,0,0
			c-0.01-0.02-0.02-0.04-0.03-0.07c-0.04-0.08-0.09-0.17-0.13-0.25c-0.02-0.04-0.04-0.08-0.06-0.13c-0.06-0.12-0.12-0.24-0.18-0.36
			c-0.03-0.06-0.05-0.11-0.08-0.17c-0.03-0.07-0.07-0.14-0.1-0.2c-0.03-0.06-0.05-0.11-0.07-0.16c-0.03-0.07-0.06-0.13-0.09-0.2
			c-0.01-0.02-0.02-0.05-0.04-0.07c-0.05-0.11-0.09-0.2-0.13-0.28l-0.02-0.05c-0.01-0.01-0.01-0.02-0.02-0.03c0,0,0,0,0-0.01
			c-0.01-0.02-0.02-0.04-0.03-0.06c-0.17-0.15-0.75-0.66-1.38-1.2c-0.06-0.05-0.12-0.11-0.18-0.16c0,0-0.01-0.01-0.02-0.01
			c-0.01-0.01-0.01-0.01-0.02-0.02l-0.16-0.14c-0.63-0.55-1.24-1.06-1.43-1.2c-0.47-0.35-2.6-2.26-2.69-2.34l-2.28-2.78l-0.01-0.02
			l-0.43-0.53l0-0.01l-0.5-0.62l-0.81-2.33l-0.55-3.29h-1.38l-1.13,1l-3.52-2.13l-0.54-1.19h-0.95l0.03-0.32l0.42-4.67h0.01
			l0.05-0.53l0.99-2.54l-4.56-7.25l3.9-5.2c0.01-0.37,0.07-1.74,0.09-2.6c0-0.13,0.01-0.23,0.01-0.32l0-0.14c0-0.09,0-0.17,0-0.21
			c0-0.22,0.24-0.77,0.94-2.32c0.3-0.66,0.65-1.41,0.69-1.59c0.01-0.04,0.03-0.13,0.06-0.25c0,0,0,0,0,0
			c0.03-0.11,0.06-0.24,0.11-0.41c0,0,0,0,0,0l0.03-0.1c0.01-0.03,0.02-0.06,0.02-0.08l0.49-1.92c0-0.02,0.01-0.03,0.01-0.05h0
			l0.56-2.16c0.28-1.08,0.51-1.97,0.57-2.19l-0.57-6.04l-1.05-1.76v-1.24l1.39-1.51v-3.58l-1.75-1.42l-1.21-0.72l-1.56-3.75
			l-0.27-0.65l3.17-5.92l2.03-1.47l3.39-7.1c0.62-0.62,1.67-1.69,1.82-1.93c0.23-0.34,2.65-2.59,3.33-3.23l0.11-2.09l0.86-3.62
			l2.02-3.32l3.5-1.87l1.81-2.48l2.26-4.42l0.46-0.9l8.41-2.33l3.54-4.08l3.75-1.48l4.19-6.11l-0.21-1.68l-1.21-1.69l1.56-4.44
			l2.42-4.39l-0.12-2.17l7.3-5.25l4.42-1.51l1.97-1.21l6.44-12.06h3.86l1.53,3.64l3.05,0.54l3.38-0.58l1.39,0.35l1.74-0.35
			l1.82,0.44l2.49,0.6l3.56-0.67l2.43-2.78l4.38-1.22l0.11,0.06c0.46,0.25,1.08,0.49,1.3,0.44c0.26-0.09,1.33-1.23,2.17-2.23
			l0.07-0.06l2.97-1.78h6.31l2.03-0.7h1.89l2.44-1.63h1.68c0.31-0.08,2.28-0.58,3.18-0.58h3.83l0.08,0.07
			c0.43,0.38,1.24,1.02,1.61,1.09c0.44,0.09,2.65,0.19,3.58,0.22l2.01-1.34l1.51-1.26l0.16,0.07c0.06,0.03,1.42,0.6,2.01,0.95
			c0.27,0.14,1.8-0.3,3.34-0.95l0.19-0.08l1.67,1.79l3.5-0.22l3.31-2.16l0.01,0.01l0.07-0.05l3.68-1.06H795l1.8,3.47l2.48-1.69
			l1.02,1.02l-3.05,5.39l0.45,0.71l2.76,1.44v3.29l-1.64,2.36L794,275l0.46,1.56c4.79-0.1,4.91,0.49,4.95,0.71
			c0.08,0.37,0.77,1.58,1.21,2.29l0.99,0.63l2.21,1.42c2.06,1.08,4.41,2.24,4.74,2.28c0.03,0,0.06-0.01,0.11-0.02
			c0.01,0,0.01,0,0.02,0c0.06-0.02,0.13-0.04,0.2-0.07h0l0.04-0.02v0c0.13-0.05,0.27-0.12,0.4-0.18c0.53-0.24,1.13-0.52,1.66-0.52
			c0.7,0,4.23,0.33,4.78,0.61c0.45,0.22,3.09,1.26,3.11,1.27l3.66,0.46l1.17,1.56l0.01,0.08c0.05,0.58,0.18,1.31,0.3,1.49
			c0.07,0.1,0.17,0.31,0.35,0.71c0.84,1.77,1.4,2.71,1.66,2.77c0.68,0.11,5.75,0.69,5.8,0.7c2.14,0.46,7.09,1.55,7.45,1.79
			c0.33,0.22,4.48,4.08,5.46,5l2.25-1.29c1.28-0.97,2.77-2.22,2.89-2.5c0.09-0.39,0.46-2.29,0.55-2.77
			c-0.56-0.98-1.73-3.07-1.73-3.54v-2.37l7.9-4.66l0.09,0.01c1.39,0.1,5.05,0.35,5.33,0.35c0.36,0,2.55,0.83,3.47,1.18l0.12,0.04
			l0.94,2.22c0.82,0.41,1.79,0.84,1.98,0.85c0.35,0,3.27,0.87,4.23,1.16h3l1.97,2.43l7.37-0.69l0.08,0.04
			c0.08,0.05,0.18,0.1,0.26,0.14c0.18,0.1,0.44,0.24,0.76,0.41c0.03,0.02,0.06,0.03,0.09,0.05c0.14,0.07,0.28,0.15,0.43,0.23
			c0.06,0.03,0.12,0.06,0.18,0.1c0.12,0.07,0.24,0.13,0.37,0.2c0.01,0,0.02,0.01,0.03,0.02c0.17,0.09,0.34,0.18,0.52,0.27
			c1.52,0.8,2.96,1.51,3.3,1.56c0.82,0.12,6.75,1.46,7,1.52l3.56,0.89l2.9-3.24l1.15-1.15l7.92,0.36l1.52,1.64l5.25,0.8l4.51-0.35
			l1.98-1.32l4,10.3l-0.71,3.46l-1.08,7.77l-2.21,0.14l-0.09-0.07c-0.21-0.17-2.01-1.66-2.37-2.14c-0.34-0.46-2.3-2.87-2.32-2.9
			l-0.08-0.1l0.02-0.12c0.08-0.64,0.14-1.78-0.08-2.14c-0.14-0.23-0.53-0.56-0.88-0.84c-0.49-0.41-0.92-0.76-1.01-1.1
			c-0.07-0.29-0.82-1.96-1.41-3.24l-0.68,0.83l0.1,1.83l1.06,0.7v1.57l4.63,6.44l1.16,0.13l0.13,2.16l2.56,4.9l0.69,3.44
			c2.55,4.59,6.78,11.98,7.31,12.41c0.54,0.21,3.1,1.26,3.1,1.26l0.34,0.14l-0.91,1.27l-0.94-0.19l0.63,4.29l1.74,2.5l1.93,0.11
			l3.53,2.8l0.48,2.98l1.54,3.2l-0.59,2.12l3.18,12.51l1.45,0.11l0.08,0.13c0.52,0.87,1.52,2.34,1.97,2.56
			c0.6,0.3,2.39,0.71,2.68,0.78l0.16-0.17l1.26,5.05l4.51,8.65l1.56,3.78l1.68-0.12l0.04,0.26c0.1,0.57,0.36,1.23,0.58,1.27
			l0.28,0.05c0.59,0.11,1.48,0.27,2.79,0.78c1.56,0.6,3.3,2.67,3.38,2.76l3.43,4.57c1,0.17,3.69,0.69,4.06,1.55
			c0.3,0.7,0.75,2.56,0.9,3.2l2.42,0.12l0.41,1.24h0l0.35,1.04c0.12,0.37,0.34,2.07,0.36,2.26l0.02,0.15l-2.71,2.6l0.76,1.01
			l1.02-0.41l0.04-0.08l0.28,0.21c0.33,0.25,0.93,0.72,1.21,1c0.07,0.07,0.27,0.29,0.56,0.6c0.99,1.08,3.63,3.96,4.23,4.22
			c0.6,0.26,2.68,0.32,3.53,0.32l4.1-2.22l0.11,0.02c1.3,0.28,3.37,0.69,3.78,0.69c0.37,0,3.36-1.01,5.36-1.73l0.09-0.02l5.2-0.23
			c0.45-0.64,1.39-1.87,2.02-1.87c0.55,0,5.18,0.29,5.96,0.34c0.59-0.42,2.16-1.51,2.76-1.51c0.25,0,1.22-0.76,2.12-1.66l0.05-0.05
			l2.61-0.74l2.18,0.82l-0.05,0.25c-0.11,0.56-0.83,3.33-0.92,3.7v0.97l0.45,1.71l0.5,2.35L1028.25,420.24z"/>
	</g>
</g>
</svg>
